<svg width="300" height="300" xmlns="http://www.w3.org/2000/svg">
 <!-- Created with SVG-edit - http://svg-edit.googlecode.com/ -->
 <title>Newsprint</title>
 <g>
  <title>Layer 1</title>
  <rect height="193" width="143" y="75" x="44" stroke-width="5" stroke="#000000" fill="#ffffff" fill-opacity="0.5" id="svg_1"/>
  <path d="m113.5,40.5l143,0l0,193l-143,0l0,-193z" stroke-width="5" stroke="#000000" fill="#ffffff" fill-opacity="0.5"  id="svg_4"/>
  <line y2="111" x2="110.5" y1="111" x1="60.5" stroke-width="5" stroke="#ffffff" fill="none" id="svg_27"/>
  <line y2="233" x2="110.5" y1="233" x1="60.5" stroke-width="5" stroke="#ffffff" fill="none" id="svg_36"/>
  <line y2="213" x2="110.5" y1="213" x1="61.5" stroke-width="5" stroke="#ffffff" fill="none" id="svg_24"/>
  <line y2="193" x2="110.5" y1="193" x1="60.5" stroke-width="5" stroke="#ffffff" fill="none" id="svg_23"/>
  <line y2="172" x2="110.5" y1="172" x1="60.5" stroke-width="5" stroke="#ffffff" fill="none" id="svg_35"/>
  <line y2="153" x2="110.5" y1="153" x1="60.5" stroke-width="5" stroke="#ffffff" fill="none" id="svg_26"/>
  <line y2="132" x2="110.5" y1="132" x1="60.5" stroke-width="5" stroke="#ffffff" fill="none" id="svg_25"/>
  <line y2="93" x2="111.5" y1="93" x1="59.5" stroke-width="5" stroke="#ffffff" fill="none" id="svg_29"/>
  <line y2="54" x2="242" y1="54" x1="131" stroke-width="5" stroke="#ffffff" fill="none" id="svg_6"/>
  <line y2="73" x2="240.5" y1="73" x1="129.5" stroke-width="5" stroke="#ffffff" fill="none" id="svg_14"/>
  <line y2="93" x2="240.5" y1="93" x1="129.5" stroke-width="5" stroke="#ffffff" fill="none" id="svg_15"/>
  <line y2="112" x2="240.5" y1="112" x1="129.5" stroke-width="5" stroke="#ffffff" fill="none" id="svg_16"/>
  <line y2="133" x2="240.5" y1="133" x1="129.5" stroke-width="5" stroke="#ffffff" fill="none" id="svg_17"/>
  <line y2="152" x2="240.5" y1="152" x1="129.5" stroke-width="5" stroke="#ffffff" fill="none" id="svg_18"/>
  <line y2="173" x2="240.5" y1="173" x1="129.5" stroke-width="5" stroke="#ffffff" fill="none" id="svg_19"/>
  <line y2="194" x2="239.5" y1="194" x1="128.5" stroke-width="5" stroke="#f9f4f4" fill="none" id="svg_20"/>
  <line y2="214" x2="240.5" y1="214" x1="129.5" stroke-width="5" stroke="#ffffff" fill="none" id="svg_21"/>
  <line y2="253" x2="171.5" y1="253" x1="60.5" stroke-width="5" stroke="#ffffff" fill="none" id="svg_22"/>
 </g>
</svg>